# xmcd
#
# Track frame offsets:
#	150
#	15053
#	30139
#	44973
#	63219
#	79125
#	103178
#	119477
#	135189
#	150737
#	166822
#	181725
#	195439
#	213412
#	229545
#
# Disc length: 3311 seconds
#
# Revision: 0
# Processed by: cddbd v1.5.2PL0 Copyright (c) Steve Scherf et al.
# Submitted via: audiograbber 1.83.01
#
DISCID=af0ced0f
DTITLE=Street Doctors feat. Martin Kade and Jochen Bruche - Can´t help but cry
DYEAR=2004
DGENRE=Blues
TTITLE0=Rockin Blues fever
TTITLE1=Don´t marry the same woman twice
TTITLE2=Confession Blues
TTITLE3=Down in Yucatan
TTITLE4=Howling for my love bone
TTITLE5=Can´t help but cry
TTITLE6=Love me one more time
TTITLE7=Money ain´t working for you
TTITLE8=It´s hard to make a living
TTITLE9=No Bluez playin´ here
TTITLE10=Stick to me baby
TTITLE11=Phone operator
TTITLE12=Love rocket
TTITLE13=Trouble
TTITLE14=The official unhidden trck
EXTD=
EXTT0=
EXTT1=
EXTT2=
EXTT3=
EXTT4=
EXTT5=
EXTT6=
EXTT7=
EXTT8=
EXTT9=
EXTT10=
EXTT11=
EXTT12=
EXTT13=
EXTT14=
PLAYORDER=
